<svg width="233" height="221" viewBox="0 0 233 221" fill="none" xmlns="http://www.w3.org/2000/svg">
<path d="M121 111C121 145.242 93.9132 173 60.5 173C27.0868 173 0 145.242 0 111C0 76.7583 27.0868 49 60.5 49C93.9132 49 121 76.7583 121 111Z" fill="#FF0000"/>
<path d="M202 62C202 96.2417 174.913 124 141.5 124C108.087 124 81 96.2417 81 62C81 27.7583 108.087 0 141.5 0C174.913 0 202 27.7583 202 62Z" fill="#FF0000"/>
<path d="M211 159C211 193.242 183.913 221 150.5 221C117.087 221 90 193.242 90 159C90 124.758 117.087 97 150.5 97C183.913 97 211 124.758 211 159Z" fill="#FF0000"/>
<path d="M233 111C233 145.242 205.913 173 172.5 173C139.087 173 112 145.242 112 111C112 76.7583 139.087 49 172.5 49C205.913 49 233 76.7583 233 111Z" fill="#FF0000"/>
<path d="M145 66C145 100.242 117.913 128 84.5 128C51.0868 128 24 100.242 24 66C24 31.7583 51.0868 4 84.5 4C117.913 4 145 31.7583 145 66Z" fill="#FF0000"/>
<path d="M151 158C151 192.242 123.913 220 90.5 220C57.0868 220 30 192.242 30 158C30 123.758 57.0868 96 90.5 96C123.913 96 151 123.758 151 158Z" fill="#FF0000"/>
<path d="M103.998 109.091L119.453 16H157.907C164.877 16 170.68 17.3485 175.316 20.0455C179.953 22.7424 183.241 26.5152 185.18 31.3636C187.119 36.2121 187.559 41.8333 186.498 48.2273C185.468 54.6818 183.15 60.303 179.544 65.0909C175.968 69.8788 171.362 73.5909 165.726 76.2273C160.089 78.8636 153.68 80.1818 146.498 80.1818H122.816L125.771 62.4545H145.316C148.741 62.4545 151.695 61.8636 154.18 60.6818C156.695 59.5 158.71 57.8485 160.226 55.7273C161.741 53.6061 162.741 51.1061 163.226 48.2273C163.68 45.3485 163.498 42.8636 162.68 40.7727C161.862 38.6515 160.392 37.0152 158.271 35.8636C156.18 34.7121 153.453 34.1364 150.089 34.1364H138.998L126.498 109.091H103.998Z" fill="#F5F5F5"/>
<path d="M110.255 124.672L128.754 95.0674L199.51 157.504L181.565 186.222C176.555 194.24 170.748 199.902 164.144 203.208C157.55 206.556 150.53 207.44 143.084 205.86C135.648 204.322 128.188 200.25 120.703 193.643C113.468 187.265 108.234 180.259 104.998 172.628C101.747 165.022 100.551 157.128 101.411 148.947C102.297 140.781 105.245 132.69 110.255 124.672ZM131.436 126.973L125.776 136.032C123.014 140.452 121.369 144.856 120.843 149.244C120.326 153.673 121.143 158.114 123.292 162.566C125.467 167.034 129.161 171.557 134.375 176.137C139.348 180.531 143.753 183.231 147.592 184.236C151.44 185.282 154.941 184.826 158.096 182.866C161.259 180.948 164.254 177.728 167.081 173.205L173.006 163.722L131.436 126.973Z" fill="#F5F5F5"/>
<path d="M128.119 121.346L39.7727 154.507L8 99.4754L25.3701 93.0159L45.8928 128.562L63.9715 121.694L45.4715 89.6507L62.881 83.1684L81.381 115.211L116.869 101.86L128.119 121.346Z" fill="#F5F5F5"/>
<path d="M110.255 124.672L128.754 95.0674L199.51 157.504L181.565 186.222C176.555 194.24 170.748 199.902 164.144 203.208C157.55 206.556 150.53 207.44 143.084 205.86C135.648 204.322 128.188 200.25 120.703 193.643C113.468 187.265 108.234 180.259 104.998 172.628C101.747 165.022 100.551 157.128 101.411 148.947C102.297 140.781 105.245 132.69 110.255 124.672ZM131.436 126.973L125.776 136.032C123.014 140.452 121.369 144.856 120.843 149.244C120.326 153.673 121.143 158.114 123.292 162.566C125.467 167.034 129.161 171.557 134.375 176.137C139.348 180.531 143.753 183.231 147.592 184.236C151.44 185.282 154.941 184.826 158.096 182.866C161.259 180.948 164.254 177.728 167.081 173.205L173.006 163.722L131.436 126.973Z" fill="#F5F5F5"/>
<path d="M110.255 124.672L128.754 95.0674L199.51 157.504L181.565 186.222C176.555 194.24 170.748 199.902 164.144 203.208C157.55 206.556 150.53 207.44 143.084 205.86C135.648 204.322 128.188 200.25 120.703 193.643C113.468 187.265 108.234 180.259 104.998 172.628C101.747 165.022 100.551 157.128 101.411 148.947C102.297 140.781 105.245 132.69 110.255 124.672ZM131.436 126.973L125.776 136.032C123.014 140.452 121.369 144.856 120.843 149.244C120.326 153.673 121.143 158.114 123.292 162.566C125.467 167.034 129.161 171.557 134.375 176.137C139.348 180.531 143.753 183.231 147.592 184.236C151.44 185.282 154.941 184.826 158.096 182.866C161.259 180.948 164.254 177.728 167.081 173.205L173.006 163.722L131.436 126.973Z" fill="#F5F5F5"/>
<path d="M128.119 121.346L39.7727 154.507L8 99.4754L25.3701 93.0159L45.8928 128.562L63.9715 121.694L45.4715 89.6507L62.881 83.1684L81.381 115.211L116.869 101.86L128.119 121.346Z" fill="#F5F5F5"/>
<path d="M110.255 124.672L128.754 95.0674L199.51 157.504L181.565 186.222C176.555 194.24 170.748 199.902 164.144 203.208C157.55 206.556 150.53 207.44 143.084 205.86C135.648 204.322 128.188 200.25 120.703 193.643C113.468 187.265 108.234 180.259 104.998 172.628C101.747 165.022 100.551 157.128 101.411 148.947C102.297 140.781 105.245 132.69 110.255 124.672ZM131.436 126.973L125.776 136.032C123.014 140.452 121.369 144.856 120.843 149.244C120.326 153.673 121.143 158.114 123.292 162.566C125.467 167.034 129.161 171.557 134.375 176.137C139.348 180.531 143.753 183.231 147.592 184.236C151.44 185.282 154.941 184.826 158.096 182.866C161.259 180.948 164.254 177.728 167.081 173.205L173.006 163.722L131.436 126.973Z" fill="#F5F5F5"/>
<path d="M110.255 124.672L128.754 95.0674L199.51 157.504L181.565 186.222C176.555 194.24 170.748 199.902 164.144 203.208C157.55 206.556 150.53 207.44 143.084 205.86C135.648 204.322 128.188 200.25 120.703 193.643C113.468 187.265 108.234 180.259 104.998 172.628C101.747 165.022 100.551 157.128 101.411 148.947C102.297 140.781 105.245 132.69 110.255 124.672ZM131.436 126.973L125.776 136.032C123.014 140.452 121.369 144.856 120.843 149.244C120.326 153.673 121.143 158.114 123.292 162.566C125.467 167.034 129.161 171.557 134.375 176.137C139.348 180.531 143.753 183.231 147.592 184.236C151.44 185.282 154.941 184.826 158.096 182.866C161.259 180.948 164.254 177.728 167.081 173.205L173.006 163.722L131.436 126.973Z" fill="#F5F5F5"/>
<path d="M110.255 124.672L128.754 95.0674L199.51 157.504L181.565 186.222C176.555 194.24 170.748 199.902 164.144 203.208C157.55 206.556 150.53 207.44 143.084 205.86C135.648 204.322 128.188 200.25 120.703 193.643C113.468 187.265 108.234 180.259 104.998 172.628C101.747 165.022 100.551 157.128 101.411 148.947C102.297 140.781 105.245 132.69 110.255 124.672ZM131.436 126.973L125.776 136.032C123.014 140.452 121.369 144.856 120.843 149.244C120.326 153.673 121.143 158.114 123.292 162.566C125.467 167.034 129.161 171.557 134.375 176.137C139.348 180.531 143.753 183.231 147.592 184.236C151.44 185.282 154.941 184.826 158.096 182.866C161.259 180.948 164.254 177.728 167.081 173.205L173.006 163.722L131.436 126.973Z" fill="#F5F5F5"/>
</svg>
