<svg width="192" height="191" viewBox="0 0 192 191" fill="none" xmlns="http://www.w3.org/2000/svg">
<path d="M95.9983 93.0909L111.453 0H149.907C156.877 0 162.68 1.34849 167.316 4.04546C171.953 6.74243 175.241 10.5152 177.18 15.3636C179.119 20.2121 179.559 25.8333 178.498 32.2273C177.468 38.6818 175.15 44.303 171.544 49.0909C167.968 53.8788 163.362 57.5909 157.726 60.2273C152.089 62.8636 145.68 64.1818 138.498 64.1818H114.816L117.771 46.4545H137.316C140.741 46.4545 143.695 45.8636 146.18 44.6818C148.695 43.5 150.71 41.8485 152.226 39.7273C153.741 37.6061 154.741 35.1061 155.226 32.2273C155.68 29.3485 155.498 26.8636 154.68 24.7727C153.862 22.6515 152.392 21.0152 150.271 19.8636C148.18 18.7121 145.453 18.1364 142.089 18.1364H130.998L118.498 93.0909H95.9983Z" fill="#FF0000"/>
<path d="M102.255 108.672L120.754 79.0674L191.51 141.504L173.565 170.222C168.555 178.24 162.748 183.902 156.144 187.208C149.55 190.556 142.53 191.44 135.084 189.86C127.648 188.322 120.188 184.25 112.703 177.643C105.468 171.265 100.234 164.259 96.9983 156.628C93.7469 149.022 92.5513 141.128 93.4113 132.947C94.2971 124.781 97.2451 116.69 102.255 108.672ZM123.436 110.973L117.776 120.032C115.014 124.452 113.369 128.856 112.843 133.244C112.326 137.673 113.143 142.114 115.292 146.566C117.467 151.034 121.161 155.557 126.375 160.137C131.348 164.531 135.753 167.231 139.592 168.236C143.44 169.282 146.941 168.826 150.096 166.866C153.259 164.948 156.254 161.728 159.081 157.205L165.006 147.722L123.436 110.973Z" fill="#FF0000"/>
<path d="M120.119 105.346L31.7727 138.507L0 83.4754L17.3701 77.0159L37.8928 112.562L55.9715 105.694L37.4715 73.6507L54.881 67.1684L73.381 99.2114L108.869 85.8604L120.119 105.346Z" fill="#FF0000"/>
<path d="M102.255 108.672L120.754 79.0674L191.51 141.504L173.565 170.222C168.555 178.24 162.748 183.902 156.144 187.208C149.55 190.556 142.53 191.44 135.084 189.86C127.648 188.322 120.188 184.25 112.703 177.643C105.468 171.265 100.234 164.259 96.9983 156.628C93.7469 149.022 92.5513 141.128 93.4113 132.947C94.2971 124.781 97.2451 116.69 102.255 108.672ZM123.436 110.973L117.776 120.032C115.014 124.452 113.369 128.856 112.843 133.244C112.326 137.673 113.143 142.114 115.292 146.566C117.467 151.034 121.161 155.557 126.375 160.137C131.348 164.531 135.753 167.231 139.592 168.236C143.44 169.282 146.941 168.826 150.096 166.866C153.259 164.948 156.254 161.728 159.081 157.205L165.006 147.722L123.436 110.973Z" fill="#FF0000"/>
<path d="M102.255 108.672L120.754 79.0674L191.51 141.504L173.565 170.222C168.555 178.24 162.748 183.902 156.144 187.208C149.55 190.556 142.53 191.44 135.084 189.86C127.648 188.322 120.188 184.25 112.703 177.643C105.468 171.265 100.234 164.259 96.9983 156.628C93.7469 149.022 92.5513 141.128 93.4113 132.947C94.2971 124.781 97.2451 116.69 102.255 108.672ZM123.436 110.973L117.776 120.032C115.014 124.452 113.369 128.856 112.843 133.244C112.326 137.673 113.143 142.114 115.292 146.566C117.467 151.034 121.161 155.557 126.375 160.137C131.348 164.531 135.753 167.231 139.592 168.236C143.44 169.282 146.941 168.826 150.096 166.866C153.259 164.948 156.254 161.728 159.081 157.205L165.006 147.722L123.436 110.973Z" fill="#FF0000"/>
<path d="M120.119 105.346L31.7727 138.507L0 83.4754L17.3701 77.0159L37.8928 112.562L55.9715 105.694L37.4715 73.6507L54.881 67.1684L73.381 99.2114L108.869 85.8604L120.119 105.346Z" fill="#FF0000"/>
<path d="M102.255 108.672L120.754 79.0674L191.51 141.504L173.565 170.222C168.555 178.24 162.748 183.902 156.144 187.208C149.55 190.556 142.53 191.44 135.084 189.86C127.648 188.322 120.188 184.25 112.703 177.643C105.468 171.265 100.234 164.259 96.9983 156.628C93.7469 149.022 92.5513 141.128 93.4113 132.947C94.2971 124.781 97.2451 116.69 102.255 108.672ZM123.436 110.973L117.776 120.032C115.014 124.452 113.369 128.856 112.843 133.244C112.326 137.673 113.143 142.114 115.292 146.566C117.467 151.034 121.161 155.557 126.375 160.137C131.348 164.531 135.753 167.231 139.592 168.236C143.44 169.282 146.941 168.826 150.096 166.866C153.259 164.948 156.254 161.728 159.081 157.205L165.006 147.722L123.436 110.973Z" fill="#FF0000"/>
<path d="M102.255 108.672L120.754 79.0674L191.51 141.504L173.565 170.222C168.555 178.24 162.748 183.902 156.144 187.208C149.55 190.556 142.53 191.44 135.084 189.86C127.648 188.322 120.188 184.25 112.703 177.643C105.468 171.265 100.234 164.259 96.9983 156.628C93.7469 149.022 92.5513 141.128 93.4113 132.947C94.2971 124.781 97.2451 116.69 102.255 108.672ZM123.436 110.973L117.776 120.032C115.014 124.452 113.369 128.856 112.843 133.244C112.326 137.673 113.143 142.114 115.292 146.566C117.467 151.034 121.161 155.557 126.375 160.137C131.348 164.531 135.753 167.231 139.592 168.236C143.44 169.282 146.941 168.826 150.096 166.866C153.259 164.948 156.254 161.728 159.081 157.205L165.006 147.722L123.436 110.973Z" fill="#FF0000"/>
<path d="M102.255 108.672L120.754 79.0674L191.51 141.504L173.565 170.222C168.555 178.24 162.748 183.902 156.144 187.208C149.55 190.556 142.53 191.44 135.084 189.86C127.648 188.322 120.188 184.25 112.703 177.643C105.468 171.265 100.234 164.259 96.9983 156.628C93.7469 149.022 92.5513 141.128 93.4113 132.947C94.2971 124.781 97.2451 116.69 102.255 108.672ZM123.436 110.973L117.776 120.032C115.014 124.452 113.369 128.856 112.843 133.244C112.326 137.673 113.143 142.114 115.292 146.566C117.467 151.034 121.161 155.557 126.375 160.137C131.348 164.531 135.753 167.231 139.592 168.236C143.44 169.282 146.941 168.826 150.096 166.866C153.259 164.948 156.254 161.728 159.081 157.205L165.006 147.722L123.436 110.973Z" fill="#FF0000"/>
</svg>
